inDegrees=no
num_controls=7
num_derivatives=13
num_iterations=111
num_multipliers=7
num_parameters=0
num_slacks=7
num_states=26
objective=0.477173
objective_accelerations=0.044785
objective_balance=0.003743
objective_effort=0.040994
objective_height=0.381982
objective_ligament=0.005669
solver_duration=1544.079886
status=Solve_Succeeded
success=true
DataType=double
version=3
OpenSimVersion=4.5
endheader
time	/jointset/ground_pelvis/pelvis_tilt/value	/jointset/ground_pelvis/pelvis_tx/value	/jointset/ground_pelvis/pelvis_ty/value	/jointset/hip_l/hip_flexion_l/value	/jointset/hip_l/hip_adduction_l/value	/jointset/hip_l/hip_rotation_l/value	/jointset/back/lumbar_extension/value	/jointset/patellofemoral_l/patellar_flexion_l/value	/jointset/knee_l/knee_flexion_l/value	/jointset/knee_l/knee_adduction_l/value	/jointset/knee_l/knee_rotation_l/value	/jointset/ankle_l/ankle_angle_l/value	/jointset/subtalar_l/subtalar_angle_l/value	/jointset/ground_pelvis/pelvis_tilt/speed	/jointset/ground_pelvis/pelvis_tx/speed	/jointset/ground_pelvis/pelvis_ty/speed	/jointset/hip_l/hip_flexion_l/speed	/jointset/hip_l/hip_adduction_l/speed	/jointset/hip_l/hip_rotation_l/speed	/jointset/back/lumbar_extension/speed	/jointset/patellofemoral_l/patellar_flexion_l/speed	/jointset/knee_l/knee_flexion_l/speed	/jointset/knee_l/knee_adduction_l/speed	/jointset/knee_l/knee_rotation_l/speed	/jointset/ankle_l/ankle_angle_l/speed	/jointset/subtalar_l/subtalar_angle_l/speed	/forceset/tau_hip_flexion_l	/forceset/tau_hip_adduction_l	/forceset/tau_hip_rotation_l	/forceset/tau_knee_flexion_l	/forceset/tau_ankle_angle_l	/forceset/tau_subtalar_angle_l	/forceset/tau_lumbar_extension	lambda_cid13_p0	lambda_cid13_p1	lambda_cid13_p2	lambda_cid13_p3	lambda_cid13_p4	lambda_cid13_p5	lambda_cid14_p0	/jointset/ground_pelvis/pelvis_tilt/accel	/jointset/ground_pelvis/pelvis_tx/accel	/jointset/ground_pelvis/pelvis_ty/accel	/jointset/hip_l/hip_flexion_l/accel	/jointset/hip_l/hip_adduction_l/accel	/jointset/hip_l/hip_rotation_l/accel	/jointset/back/lumbar_extension/accel	/jointset/patellofemoral_l/patellar_flexion_l/accel	/jointset/knee_l/knee_flexion_l/accel	/jointset/knee_l/knee_adduction_l/accel	/jointset/knee_l/knee_rotation_l/accel	/jointset/ankle_l/ankle_angle_l/accel	/jointset/subtalar_l/subtalar_angle_l/accel	gamma_cid13_p0	gamma_cid13_p1	gamma_cid13_p2	gamma_cid13_p3	gamma_cid13_p4	gamma_cid13_p5	gamma_cid14_p0
1	-0.1176649083692196	-0.06244756474871211	0.6791474528206775	1.345082317611323	-0.3268815172096738	0.07167746766537722	-0.9599022021406136	1.400242427307291	1.400242427307266	-0.06322317045118452	-0.174104224233871	0.2705977616256166	0.06270089721996336	0.1030831240967114	0.02536162526994195	0.07034835913146477	-0.2983009857597526	-0.00710019121198649	-0.06457517311051056	-0.001588724123232244	-0.160090587453633	-0.1600905874536408	-0.001906745850719083	0.0003816165790056881	0.02647637492426402	0.00330696584849937	-0.382048488098173	0.01971514995909653	0.001124084807682358	-0.3730183988912507	0.043546905072969	0.02270071365705905	0.4317265886459605	-37.60445033276397	-1.947238235778278	-1.660091461583208	13.83490838732166	-802.5823250964874	-65.38645571141083	-0.04157595364983738	0.8186896503866473	0.002053283581599887	1.564816696612084	-5.031794545972414	-0.1228931217721058	-1.646693256920081	0.1575565995826682	-5.024179321435335	-5.024179321435681	-0.3633472362785005	0.0107522505472462	-1.163149191968023	-0.6419149841182941	-9.422121295193542e-09	1.952126178705377e-08	6.224356522342358e-08	7.291246895096935e-09	-2.334704905459484e-08	1.272624948309418e-07	-1.667280124175873e-08
1.01	-0.1165935543875885	-0.06219380073370483	0.6799289343385	1.341848695555893	-0.326957894794099	0.0709485961881533	-0.9599095611391338	1.39839072946245	1.398390729462442	-0.06325849248998078	-0.1740989183288603	0.2708044494238156	0.06270293231742606	0.1111831138384578	0.02539667343733965	0.08593364077695781	-0.3483900462629869	-0.008165337700619462	-0.08119168489889327	0.0001361627465606881	-0.2102368043990228	-0.2102368043990255	-0.005152944074997844	0.0006784707227385281	0.01484576039823202	-0.002893642146194583	-0.3811271219603615	0.01992691918000977	0.001049661364773107	-0.3727735715254979	0.04345207514565602	0.02281838587606872	0.4312343596930663	-37.59181183469577	-2.010692248212509	-1.638397301710425	13.70892412202875	-802.0879725727024	-65.43197975142161	-0.04161125640840617	0.8049677650101473	0.00505732811181162	1.553232470238101	-4.992457820587064	-0.0968345131611667	-1.668032142157134	0.1828404810668652	-5.00801174706954	-5.008011747068557	-0.3045596640826879	0.03901014451495217	-1.16533132539724	-0.608200427218607	-1.514179894752217e-08	1.095084926828778e-08	9.073201388971882e-08	1.189809321206664e-08	-2.933878361631936e-08	1.445394957927406e-07	-2.277176306641024e-08
1.02	-0.1154413376827528	-0.06193952088806499	0.6808658383871218	1.338115183691804	-0.3270446256635631	0.07005377919257889	-0.9598990941189361	1.396037935674959	1.396037935674975	-0.0633261372207366	-0.1740906722527683	0.270894368328259	0.06264314799092704	0.1192556687378603	0.02546479139645306	0.1014328652912471	-0.3982789474897483	-0.009170848219344831	-0.0977642767816652	0.001976479631922231	-0.2603097759835624	-0.2603097759835583	-0.00837128424248022	0.0009696507956181844	0.003122596173141453	-0.009056918943834286	-0.3802057558225787	0.02013868840092814	0.0009752379217967043	-0.3725287441597481	0.0433572452183503	0.02293605809508953	0.4307421307401463	-37.5904481685426	-2.070956043691685	-1.618600877016339	13.63996033600488	-801.7386719359365	-65.45340917843011	-0.04164731819913044	0.8132026819178875	0.008667241924741735	1.547605270371344	-4.991762690677833	-0.1109659277905818	-1.637909275797919	0.1806426026965393	-5.009530249265284	-5.009530249265311	-0.3577756249192213	0.009617436376615204	-1.18165913177974	-0.6344487447074412	-2.132203879266558e-08	1.93006419953822e-09	1.183993449109885e-07	1.711606466770592e-08	-3.573731168500366e-08	1.615680564323966e-07	-2.88682468232825e-08
1.03	-0.1142088072803523	-0.06168421544744725	0.6819572626932854	1.333883952307209	-0.3271411104209507	0.0689935318100524	-0.959868400720213	1.393184881470672	1.393184881470671	-0.06342586489353677	-0.1740795566834112	0.2708668157571492	0.06252203152333639	0.1272184298086328	0.02561984024880595	0.1168336635675755	-0.4479179474479598	-0.0101166245628456	-0.1142734958302041	0.004306220772942958	-0.3102792531719998	-0.3102792531719984	-0.01157173377951923	0.001249051106300255	-0.008626300400880667	-0.01514980613538875	-0.3800951346938459	0.0204082305253232	0.0008648946234602757	-0.371931015589463	0.04335038980113577	0.02315274366705593	0.4312893402996937	-37.5669813272976	-2.190571591198321	-1.57508674722058	13.19923079899513	-801.8205206908049	-65.50446475738534	-0.04169177766837187	0.7830128771633137	0.02245973485521525	1.533558783368159	-4.942565204412386	-0.08497530453255904	-1.655700665973195	0.2807429687625249	-4.987377668471676	-4.987377668472072	-0.3008203183770284	0.03647354445046372	-1.170484861591928	-0.594239377533673	-2.75069782520214e-08	-7.095316507476485e-09	1.460582971807783e-07	2.234027209414794e-08	-4.213999070784062e-08	1.785940819667246e-07	-3.496470529374885e-08
1.04	-0.1128976092557426	-0.06142665231271305	0.6832021433176336	1.329157811611829	-0.3272467713051545	0.0677685377477278	-0.9598100892902892	1.389832788251533	1.389832788251514	-0.0635575252017625	-0.1740657726677419	0.2707219782320234	0.06234048004959929	0.1349891931796569	0.02591633021974283	0.1321241289280826	-0.4972608096469546	-0.01100607358245756	-0.1307136127423945	0.007500085872267088	-0.3601175789539858	-0.360117578953987	-0.01475781132778871	0.001503340058441749	-0.02033439463004235	-0.02114392017311138	-0.3799845135651061	0.02067777264972791	0.000754551325092601	-0.3713332870191776	0.04334353438392288	0.02336942923903641	0.4318365498592469	-37.55498531031337	-2.306961269491308	-1.533477574461603	12.81492384822872	-802.0503165635763	-65.53230239083526	-0.04173574261375139	0.7748031419681898	0.03695546564153804	1.525538687207113	-4.932535138834479	-0.09970046301281309	-1.624088848528207	0.3534673943571848	-4.983299967975002	-4.983299967974999	-0.3549012271653137	0.004595164668511004	-1.173498662807657	-0.6146941139410682	-3.253734200605307e-08	-1.756109157170274e-08	1.716244210524716e-07	2.504629364482115e-08	-4.809631998436605e-08	1.898127097381058e-07	-4.046614972010428e-08
1.05	-0.1115095622052177	-0.06116537126957995	0.684599331619544	1.323939692165392	-0.3273610204753268	0.06637958561877357	-0.9597154899841527	1.385983067152458	1.38598306715246	-0.06372101304003186	-0.1740495651733547	0.2704603028208284	0.06209954161477418	0.142597605747644	0.0263680721268884	0.1472906653691787	-0.546316554568433	-0.01183148685641933	-0.1470598712996536	0.01156783936502844	-0.4097953607784595	-0.40979536077846	-0.01793671032794661	0.001734434020181332	-0.0319898294167975	-0.0270206438775913	-0.3797647781165651	0.0209812174301364	0.0006102484870985997	-0.3704395782618688	0.04342199137172899	0.02365981247449027	0.4323371354715432	-37.48948922003066	-2.474396953662828	-1.472682842101034	12.29918254241982	-801.9987647345384	-65.59811342757143	-0.0417916220627318	0.7504653314616428	0.05351817250373921	1.508770342068663	-4.885120233779318	-0.07214042253551459	-1.637390721160425	0.4556389281319784	-4.955316032125042	-4.955316032124926	-0.2989518719361428	0.0318523649522519	-1.159939695406561	-0.5707116423970787	-3.753162526929337e-08	-2.807187895959184e-08	1.971251440367244e-07	2.76736218868766e-08	-5.403870083131924e-08	2.008498563293949e-07	-4.594899995758126e-08
1.06	-0.1100461100255628	-0.06089872588352487	0.6861474971297672	1.318232410056749	-0.3274831595108286	0.06482767163188494	-0.9595757712228052	1.38163750848665	1.381637508486672	-0.06391620339539932	-0.1740311495687469	0.2700823983000065	0.06180052591416507	0.1500702190055344	0.02698919880413881	0.1623195705905828	-0.5950933420889034	-0.01258404664828898	-0.1633059843303385	0.01652397691364098	-0.4592850923005926	-0.4592850923005922	-0.02109831474790837	0.001944962102944694	-0.04358021655543758	-0.03275937332989541	-0.3795450426680127	0.0212846622105545	0.0004659456490942217	-0.3695458695045591	0.04350044835953582	0.02395019570995742	0.4328377210838492	-37.4356575582455	-2.638556334795827	-1.413820008623047	11.83825963316584	-802.0983206851222	-65.64206532743536	-0.04184604160778415	0.7476432799488354	0.07083241966250242	1.498012443268708	-4.876743658632873	-0.08512976659437951	-1.604059743213357	0.5311442055274054	-4.945689907506852	-4.945689907506864	-0.3514423111260797	0.0004819888732835848	-1.160489133184644	-0.5870952635058969	-4.209837703525189e-08	-3.963019825638453e-08	2.194711255569759e-07	2.936300464527212e-08	-5.941869887889193e-08	2.077137666567697e-07	-5.088904835185765e-08
1.07	-0.1085086840705554	-0.06062499380685468	0.6878451892082799	1.312038956232328	-0.3276124393993061	0.06311387676960899	-0.9593819097314172	1.376798091448692	1.376798091448685	-0.06414295288772298	-0.1740107449132858	0.2695888930694048	0.06144483929255224	0.1573839905434064	0.02778833332200285	0.1771885052105978	-0.6435302300058897	-0.01325673989891307	-0.1794336066908069	0.02241182031237244	-0.5085575253369694	-0.5085575253369654	-0.02424545999148076	0.002131856100081534	-0.05511179851762436	-0.0383507924090274	-0.3790810383945664	0.02160935550315237	0.0002902103506234677	-0.3684125805116026	0.04373361025923982	0.02430156703603545	0.4331697945351446	-37.3031949751575	-2.850987761033472	-1.338103592551777	11.25547775296858	-801.8421104891628	-65.72480765406694	-0.04191248057265107	0.7185929220585947	0.08912771033099318	1.476769956746953	-4.817088168462619	-0.05608524763088046	-1.614252731327559	0.6421292492916267	-4.911890279098415	-4.911890279097867	-0.2954625161738972	0.02722970474805811	-1.148141761404724	-0.5411115265430548	-4.664238776412094e-08	-5.124423733556573e-08	2.416493016802059e-07	3.100249668645168e-08	-6.476878294777417e-08	2.143556963318086e-07	-5.580022430766593e-08
1.08	-0.1068990506338984	-0.06034233563650933	0.6896906578300686	1.305363148166685	-0.3277479954489583	0.06123937783396048	-0.9591242648375923	1.371467176024891	1.371467176024859	-0.06440099620951845	-0.173988583997932	0.2689803422124474	0.06103404922086277	0.1645117153353611	0.02877441753916792	0.191874879245763	-0.6915641903321232	-0.01383927888291665	-0.1954467990058343	0.02928065740092506	-0.5575847694691592	-0.5575847694691517	-0.02735708064309606	0.002296214081786191	-0.06658934182657221	-0.04378006334520688	-0.3786170341211407	0.02193404879575516	0.0001144750521614032	-0.3672792915186466	0.0439667721589492	0.02465293836212224	0.4335018679864216	-37.18259664273523	-3.060075219805251	-1.264367207161814	10.72561347683295	-801.7401887630523	-65.7874261856459	-0.04197627876314618	0.7104339307653877	0.1082223595227033	1.461500326298756	-4.796158140482322	-0.06709891327026908	-1.581173734125153	0.7273429434916365	-4.896652126669453	-4.896652126669511	-0.3443373927346552	-0.004025214213131191	-1.149681402536865	-0.5546656349153852	-5.085374143928455e-08	-6.302576870371765e-08	2.604658038976843e-07	3.224091316297967e-08	-6.956246016239854e-08	2.169689891953709e-07	-6.001853003509381e-08
